<?xml version="1.0" encoding="UTF-8"?>
<svg xmlns="http://www.w3.org/2000/svg" xmlns:xlink="http://www.w3.org/1999/xlink" width="55.63pt" height="42.52pt" viewBox="0 0 55.63 42.52" version="1.1">
<defs>
<clipPath id="clip1">
  <path d="M 0 0 L 55.628906 0 L 55.628906 23 L 0 23 Z M 0 0 "/>
</clipPath>
<clipPath id="clip2">
  <path d="M 0 35 L 4 35 L 4 42.519531 L 0 42.519531 Z M 0 35 "/>
</clipPath>
<clipPath id="clip3">
  <path d="M 5 35 L 9 35 L 9 42.519531 L 5 42.519531 Z M 5 35 "/>
</clipPath>
<clipPath id="clip4">
  <path d="M 10 35 L 12 35 L 12 42.519531 L 10 42.519531 Z M 10 35 "/>
</clipPath>
<clipPath id="clip5">
  <path d="M 12 35 L 16 35 L 16 42.519531 L 12 42.519531 Z M 12 35 "/>
</clipPath>
<clipPath id="clip6">
  <path d="M 17 35 L 20 35 L 20 42.519531 L 17 42.519531 Z M 17 35 "/>
</clipPath>
<clipPath id="clip7">
  <path d="M 20 35 L 25 35 L 25 42.519531 L 20 42.519531 Z M 20 35 "/>
</clipPath>
<clipPath id="clip8">
  <path d="M 24 35 L 29 35 L 29 42.519531 L 24 42.519531 Z M 24 35 "/>
</clipPath>
<clipPath id="clip9">
  <path d="M 28 35 L 32 35 L 32 42.519531 L 28 42.519531 Z M 28 35 "/>
</clipPath>
<clipPath id="clip10">
  <path d="M 32 35 L 34 35 L 34 42.519531 L 32 42.519531 Z M 32 35 "/>
</clipPath>
<clipPath id="clip11">
  <path d="M 34 35 L 39 35 L 39 42.519531 L 34 42.519531 Z M 34 35 "/>
</clipPath>
<clipPath id="clip12">
  <path d="M 37 35 L 43 35 L 43 42.519531 L 37 42.519531 Z M 37 35 "/>
</clipPath>
<clipPath id="clip13">
  <path d="M 42 35 L 47 35 L 47 42.519531 L 42 42.519531 Z M 42 35 "/>
</clipPath>
<clipPath id="clip14">
  <path d="M 47 35 L 51 35 L 51 42.519531 L 47 42.519531 Z M 47 35 "/>
</clipPath>
<clipPath id="clip15">
  <path d="M 50 35 L 55.628906 35 L 55.628906 42.519531 L 50 42.519531 Z M 50 35 "/>
</clipPath>
<clipPath id="clip16">
  <path d="M 50 25 L 55.628906 25 L 55.628906 33 L 50 33 Z M 50 25 "/>
</clipPath>
</defs>
<g id="surface1">
<g clip-path="url(#clip1)" clip-rule="nonzero">
<path style=" stroke:none;fill-rule:nonzero;fill:rgb(0%,57.254028%,60.391235%);fill-opacity:1;" d="M 46.070313 0 C 51.285156 0 55.515625 4.269531 55.515625 9.535156 L 55.515625 18.753906 C 55.515625 21 53.699219 22.144531 52.15625 22.144531 C 50.613281 22.144531 48.796875 21 48.796875 18.753906 L 48.796875 9.535156 C 48.796875 8.015625 47.578125 6.78125 46.070313 6.78125 C 44.566406 6.78125 43.347656 8.015625 43.347656 9.53125 L 43.347656 12.609375 C 43.347656 17.875 39.121094 22.144531 33.90625 22.144531 C 28.695313 22.144531 24.46875 17.875 24.46875 12.609375 L 24.46875 9.535156 C 24.46875 8.015625 23.246094 6.78125 21.742188 6.78125 C 20.242188 6.78125 19.019531 8.015625 19.019531 9.535156 L 19.019531 18.753906 C 19.019531 21 17.203125 22.144531 15.664063 22.144531 C 14.121094 22.144531 12.304688 21 12.304688 18.753906 L 12.304688 9.535156 C 12.304688 8.015625 11.085938 6.78125 9.578125 6.78125 C 8.074219 6.78125 6.855469 8.015625 6.855469 9.535156 L 6.855469 18.753906 C 6.855469 21 5.039063 22.144531 3.5 22.144531 C 1.960938 22.144531 0.140625 21 0.140625 18.753906 L 0.140625 9.535156 C 0.140625 4.269531 4.367188 0 9.578125 0 C 11.898438 0 14.019531 0.84375 15.660156 2.242188 C 17.304688 0.84375 19.425781 0 21.742188 0 C 26.960938 0 31.183594 4.269531 31.183594 9.535156 L 31.183594 12.609375 C 31.183594 14.128906 32.402344 15.363281 33.90625 15.363281 C 35.414063 15.363281 36.636719 14.128906 36.636719 12.609375 L 36.632813 9.535156 C 36.632813 4.269531 40.859375 0 46.070313 0 "/>
</g>
<g clip-path="url(#clip2)" clip-rule="nonzero">
<path style=" stroke:none;fill-rule:nonzero;fill:rgb(13.699341%,12.199402%,12.5%);fill-opacity:1;" d="M 3.816406 35.734375 L 3.113281 35.734375 L 3.113281 39.519531 C 3.113281 40.796875 2.8125 41.675781 1.910156 41.675781 C 1 41.675781 0.703125 40.796875 0.703125 39.519531 L 0.703125 35.734375 L 0 35.734375 L 0 39.644531 C 0 41.515625 0.695313 42.519531 1.910156 42.519531 C 3.117188 42.519531 3.816406 41.515625 3.816406 39.644531 L 3.816406 35.734375 "/>
</g>
<g clip-path="url(#clip3)" clip-rule="nonzero">
<path style=" stroke:none;fill-rule:nonzero;fill:rgb(13.699341%,12.199402%,12.5%);fill-opacity:1;" d="M 5.074219 42.390625 L 5.777344 42.390625 L 5.777344 36.90625 L 5.789063 36.90625 L 8.019531 42.390625 L 8.917969 42.390625 L 8.917969 35.722656 L 8.214844 35.722656 L 8.214844 41.089844 L 8.199219 41.089844 L 6.03125 35.722656 L 5.074219 35.722656 L 5.074219 42.390625 "/>
</g>
<g clip-path="url(#clip4)" clip-rule="nonzero">
<path style=" stroke:none;fill-rule:nonzero;fill:rgb(13.699341%,12.199402%,12.5%);fill-opacity:1;" d="M 10.484375 42.390625 L 11.1875 42.390625 L 11.1875 35.722656 L 10.484375 35.722656 L 10.484375 42.390625 "/>
</g>
<g clip-path="url(#clip5)" clip-rule="nonzero">
<path style=" stroke:none;fill-rule:nonzero;fill:rgb(13.699341%,12.199402%,12.5%);fill-opacity:1;" d="M 13.511719 36.515625 L 14.246094 36.515625 C 14.65625 36.515625 15.15625 36.714844 15.15625 37.507813 C 15.15625 38.492188 14.582031 38.578125 13.898438 38.578125 L 13.511719 38.578125 Z M 13.511719 39.355469 L 13.96875 39.355469 C 14.570313 39.355469 15.242188 39.5 15.242188 40.53125 C 15.242188 41.429688 14.671875 41.609375 14.035156 41.609375 L 13.511719 41.609375 Z M 12.808594 42.398438 L 14.117188 42.398438 C 15.117188 42.398438 15.988281 42.058594 15.988281 40.621094 C 15.988281 39.6875 15.515625 39.09375 14.847656 39.015625 L 14.847656 38.996094 C 15.46875 38.789063 15.863281 38.332031 15.863281 37.410156 C 15.863281 36.179688 15.15625 35.730469 14.136719 35.730469 L 12.808594 35.730469 L 12.808594 42.398438 "/>
</g>
<g clip-path="url(#clip6)" clip-rule="nonzero">
<path style=" stroke:none;fill-rule:nonzero;fill:rgb(13.699341%,12.199402%,12.5%);fill-opacity:1;" d="M 17.15625 42.394531 L 19.910156 42.394531 L 19.910156 41.550781 L 17.859375 41.550781 L 17.859375 39.355469 L 19.726563 39.355469 L 19.726563 38.515625 L 17.859375 38.515625 L 17.859375 36.566406 L 19.910156 36.566406 L 19.910156 35.722656 L 17.15625 35.722656 L 17.15625 42.394531 "/>
</g>
<g clip-path="url(#clip7)" clip-rule="nonzero">
<path style=" stroke:none;fill-rule:nonzero;fill:rgb(13.699341%,12.199402%,12.5%);fill-opacity:1;" d="M 21.667969 36.5625 L 22.34375 36.5625 C 22.992188 36.5625 23.328125 36.945313 23.328125 37.546875 C 23.328125 38.1875 22.933594 38.589844 22.265625 38.589844 L 21.667969 38.589844 Z M 20.960938 42.390625 L 21.667969 42.390625 L 21.667969 39.429688 L 22.089844 39.429688 C 22.460938 39.429688 22.695313 39.429688 22.910156 40.078125 L 23.667969 42.390625 L 24.46875 42.390625 L 23.539063 39.734375 C 23.386719 39.324219 23.277344 39.179688 23.058594 39.066406 L 23.058594 39.046875 C 23.632813 38.914063 24.078125 38.339844 24.078125 37.527344 C 24.078125 35.933594 23.140625 35.722656 22.164063 35.722656 L 20.960938 35.722656 L 20.960938 42.390625 "/>
</g>
<g clip-path="url(#clip8)" clip-rule="nonzero">
<path style=" stroke:none;fill-rule:nonzero;fill:rgb(13.699341%,12.199402%,12.5%);fill-opacity:1;" d="M 26.125 42.386719 L 26.832031 42.386719 L 26.832031 36.5625 L 28.359375 36.5625 L 28.359375 35.71875 L 24.597656 35.71875 L 24.597656 36.5625 L 26.125 36.5625 L 26.125 42.386719 "/>
</g>
<g clip-path="url(#clip9)" clip-rule="nonzero">
<path style=" stroke:none;fill-rule:nonzero;fill:rgb(13.699341%,12.199402%,12.5%);fill-opacity:1;" d="M 31.503906 35.84375 C 31.167969 35.679688 30.78125 35.605469 30.457031 35.605469 C 29.570313 35.605469 28.878906 36.234375 28.878906 37.421875 C 28.878906 39.496094 30.988281 39.082031 30.988281 40.574219 C 30.988281 41.355469 30.429688 41.664063 30.023438 41.664063 C 29.667969 41.664063 29.246094 41.46875 29.003906 41.339844 L 28.933594 42.226563 C 29.257813 42.371094 29.59375 42.503906 29.941406 42.503906 C 30.925781 42.503906 31.738281 41.941406 31.738281 40.515625 C 31.738281 38.316406 29.628906 38.617188 29.628906 37.335938 C 29.628906 36.636719 30.089844 36.445313 30.480469 36.445313 C 30.851563 36.445313 31.042969 36.53125 31.402344 36.722656 L 31.503906 35.84375 "/>
</g>
<g clip-path="url(#clip10)" clip-rule="nonzero">
<path style=" stroke:none;fill-rule:nonzero;fill:rgb(13.699341%,12.199402%,12.5%);fill-opacity:1;" d="M 32.808594 42.386719 L 33.519531 42.386719 L 33.519531 35.71875 L 32.808594 35.71875 L 32.808594 42.386719 "/>
</g>
<g clip-path="url(#clip11)" clip-rule="nonzero">
<path style=" stroke:none;fill-rule:nonzero;fill:rgb(13.699341%,12.199402%,12.5%);fill-opacity:1;" d="M 35.875 42.386719 L 36.582031 42.386719 L 36.582031 36.5625 L 38.105469 36.5625 L 38.105469 35.71875 L 34.34375 35.71875 L 34.34375 36.5625 L 35.875 36.5625 L 35.875 42.386719 "/>
</g>
<g clip-path="url(#clip12)" clip-rule="nonzero">
<path style=" stroke:none;fill-rule:nonzero;fill:rgb(13.699341%,12.199402%,12.5%);fill-opacity:1;" d="M 41.417969 39.921875 L 39.460938 39.921875 L 40.4375 36.617188 Z M 37.996094 42.390625 L 38.734375 42.390625 L 39.234375 40.707031 L 41.640625 40.707031 L 42.144531 42.390625 L 42.910156 42.390625 L 40.832031 35.71875 L 40.09375 35.71875 L 37.996094 42.390625 "/>
</g>
<g clip-path="url(#clip13)" clip-rule="nonzero">
<path style=" stroke:none;fill-rule:nonzero;fill:rgb(13.699341%,12.199402%,12.5%);fill-opacity:1;" d="M 44.1875 42.386719 L 44.890625 42.386719 L 44.890625 36.5625 L 46.417969 36.5625 L 46.417969 35.71875 L 42.65625 35.71875 L 42.65625 36.5625 L 44.1875 36.5625 L 44.1875 42.386719 "/>
</g>
<g clip-path="url(#clip14)" clip-rule="nonzero">
<path style=" stroke:none;fill-rule:nonzero;fill:rgb(13.699341%,12.199402%,12.5%);fill-opacity:1;" d="M 47.269531 42.386719 L 50.023438 42.386719 L 50.023438 41.546875 L 47.972656 41.546875 L 47.972656 39.351563 L 49.84375 39.351563 L 49.84375 38.507813 L 47.972656 38.507813 L 47.972656 36.5625 L 50.023438 36.5625 L 50.023438 35.71875 L 47.269531 35.71875 L 47.269531 42.386719 "/>
</g>
<g clip-path="url(#clip15)" clip-rule="nonzero">
<path style=" stroke:none;fill-rule:nonzero;fill:rgb(13.699341%,12.199402%,12.5%);fill-opacity:1;" d="M 54.144531 39.921875 L 52.183594 39.921875 L 53.160156 36.617188 Z M 50.71875 42.390625 L 51.460938 42.390625 L 51.960938 40.707031 L 54.367188 40.707031 L 54.867188 42.390625 L 55.632813 42.390625 L 53.554688 35.71875 L 52.816406 35.71875 L 50.71875 42.390625 "/>
</g>
<path style=" stroke:none;fill-rule:nonzero;fill:rgb(13.699341%,12.199402%,12.5%);fill-opacity:1;" d="M 0.140625 32.144531 L 1.246094 32.144531 L 1.246094 26.621094 L 1.261719 26.601563 L 2.8125 32.144531 L 3.917969 32.144531 L 5.46875 26.601563 L 5.488281 26.601563 L 5.488281 32.144531 L 6.59375 32.144531 L 6.59375 25.425781 L 4.742188 25.425781 L 3.375 30.519531 L 3.359375 30.519531 L 1.988281 25.425781 L 0.140625 25.425781 L 0.140625 32.144531 "/>
<path style=" stroke:none;fill-rule:nonzero;fill:rgb(13.699341%,12.199402%,12.5%);fill-opacity:1;" d="M 8.980469 28.769531 C 8.980469 27.582031 9.449219 26.371094 10.597656 26.371094 C 11.742188 26.371094 12.214844 27.582031 12.214844 28.769531 C 12.214844 29.980469 11.777344 31.203125 10.597656 31.203125 C 9.417969 31.203125 8.980469 29.980469 8.980469 28.769531 M 7.777344 28.769531 C 7.777344 30.824219 8.75 32.261719 10.597656 32.261719 C 12.417969 32.261719 13.417969 30.796875 13.417969 28.769531 C 13.417969 26.738281 12.40625 25.3125 10.597656 25.3125 C 8.761719 25.3125 7.777344 26.707031 7.777344 28.769531 "/>
<path style=" stroke:none;fill-rule:nonzero;fill:rgb(13.699341%,12.199402%,12.5%);fill-opacity:1;" d="M 14.558594 32.144531 L 15.667969 32.144531 L 15.667969 27.121094 L 15.683594 27.121094 L 17.886719 32.144531 L 19.296875 32.144531 L 19.296875 25.425781 L 18.191406 25.425781 L 18.191406 30.449219 L 18.175781 30.449219 L 15.980469 25.425781 L 14.558594 25.425781 L 14.558594 32.144531 "/>
<path style=" stroke:none;fill-rule:nonzero;fill:rgb(13.699341%,12.199402%,12.5%);fill-opacity:1;" d="M 22.074219 26.488281 L 22.71875 26.488281 C 23.679688 26.488281 24.613281 27.324219 24.613281 28.789063 C 24.613281 30.25 23.679688 31.085938 22.71875 31.085938 L 22.074219 31.085938 Z M 20.917969 32.148438 L 22.492188 32.148438 C 24.261719 32.148438 25.820313 31.453125 25.820313 28.789063 C 25.820313 26.121094 24.261719 25.425781 22.492188 25.425781 L 20.917969 25.425781 L 20.917969 32.148438 "/>
<path style=" stroke:none;fill-rule:nonzero;fill:rgb(13.699341%,12.199402%,12.5%);fill-opacity:1;" d="M 27.105469 32.144531 L 28.261719 32.144531 L 28.261719 29.355469 L 28.632813 29.355469 C 29.117188 29.355469 29.265625 29.546875 29.429688 30.046875 L 30.121094 32.144531 L 31.410156 32.144531 L 30.488281 29.515625 C 30.371094 29.21875 30.191406 28.851563 29.875 28.824219 L 29.875 28.804688 C 30.609375 28.691406 31.066406 28.035156 31.066406 27.246094 C 31.066406 25.378906 29.589844 25.425781 28.347656 25.425781 L 27.105469 25.425781 Z M 28.261719 26.484375 L 28.640625 26.484375 C 29.214844 26.484375 29.859375 26.554688 29.859375 27.359375 C 29.859375 28.199219 29.207031 28.296875 28.640625 28.296875 L 28.261719 28.296875 L 28.261719 26.484375 "/>
<path style=" stroke:none;fill-rule:nonzero;fill:rgb(13.699341%,12.199402%,12.5%);fill-opacity:1;" d="M 31.902344 32.144531 L 33.09375 32.144531 L 33.597656 30.605469 L 35.9375 30.605469 L 36.429688 32.144531 L 37.710938 32.144531 L 35.449219 25.425781 L 34.148438 25.425781 Z M 35.613281 29.546875 L 33.929688 29.546875 L 34.761719 26.773438 L 34.78125 26.773438 L 35.613281 29.546875 "/>
<path style=" stroke:none;fill-rule:nonzero;fill:rgb(13.699341%,12.199402%,12.5%);fill-opacity:1;" d="M 42.761719 25.589844 C 42.265625 25.417969 41.734375 25.3125 41.070313 25.3125 C 39.113281 25.3125 37.910156 26.601563 37.910156 28.902344 C 37.910156 31.171875 39.207031 32.257813 41.070313 32.257813 C 41.691406 32.257813 42.324219 32.105469 42.933594 31.914063 L 42.933594 28.296875 L 40.609375 28.296875 L 40.609375 29.355469 L 41.832031 29.355469 L 41.832031 31.105469 C 41.632813 31.160156 41.382813 31.203125 41.070313 31.203125 C 39.839844 31.203125 39.113281 30.171875 39.113281 28.804688 C 39.113281 27.429688 39.855469 26.371094 41.203125 26.371094 C 41.664063 26.371094 42.242188 26.488281 42.683594 26.726563 L 42.761719 25.589844 "/>
<path style=" stroke:none;fill-rule:nonzero;fill:rgb(13.699341%,12.199402%,12.5%);fill-opacity:1;" d="M 45.261719 28.769531 C 45.261719 27.582031 45.734375 26.371094 46.882813 26.371094 C 48.03125 26.371094 48.5 27.582031 48.5 28.769531 C 48.5 29.980469 48.0625 31.203125 46.882813 31.203125 C 45.703125 31.203125 45.261719 29.980469 45.261719 28.769531 M 44.0625 28.769531 C 44.0625 30.824219 45.03125 32.261719 46.882813 32.261719 C 48.703125 32.261719 49.703125 30.796875 49.703125 28.769531 C 49.703125 26.738281 48.6875 25.3125 46.882813 25.3125 C 45.050781 25.3125 44.0625 26.707031 44.0625 28.769531 "/>
<g clip-path="url(#clip16)" clip-rule="nonzero">
<path style=" stroke:none;fill-rule:nonzero;fill:rgb(13.699341%,12.199402%,12.5%);fill-opacity:1;" d="M 50.777344 32.144531 L 51.882813 32.144531 L 51.882813 27.121094 L 51.898438 27.121094 L 54.105469 32.144531 L 55.515625 32.144531 L 55.515625 25.425781 L 54.410156 25.425781 L 54.410156 30.449219 L 54.390625 30.449219 L 52.195313 25.425781 L 50.777344 25.425781 L 50.777344 32.144531 "/>
</g>
</g>
</svg>
