<?xml version="1.0" encoding="utf-8"?>
<!-- Generator: Adobe Illustrator 16.0.0, SVG Export Plug-In . SVG Version: 6.00 Build 0)  -->
<!DOCTYPE svg PUBLIC "-//W3C//DTD SVG 1.1//EN" "http://www.w3.org/Graphics/SVG/1.1/DTD/svg11.dtd">
<svg version="1.1" id="Layer_1" xmlns="http://www.w3.org/2000/svg" xmlns:xlink="http://www.w3.org/1999/xlink" x="0px" y="0px"
	 width="232.486px" height="145.712px" viewBox="0 0 232.486 145.712" enable-background="new 0 0 232.486 145.712"
	 xml:space="preserve">
<g>
	<path fill-rule="evenodd" clip-rule="evenodd" fill="#C41230" d="M95.528,64.895c0,4.051-2.945,6.923-7.438,6.923h-9.647V57.972
		h9.647C92.583,57.972,95.528,60.845,95.528,64.895 M107.903,101.278l-11.71-22.61c5.082-1.841,9.575-6.408,9.575-13.773
		c0-8.764-6.334-16.057-17.013-16.057h-20.55v52.44h10.238V80.361h7.365l10.236,20.917H107.903z"/>
	<polygon fill="#C41230" points="149.06,57.972 149.06,48.838 114.517,48.838 114.517,101.278 124.754,101.278 124.754,79.992 
		145.452,79.992 145.452,70.862 124.754,70.862 124.754,57.972 	"/>
	<polygon fill="#C41230" points="189.186,101.278 189.186,92.146 164.88,92.146 164.88,79.403 185.576,79.403 185.576,70.271 
		164.88,70.271 164.88,57.972 189.186,57.972 189.186,48.838 154.642,48.838 154.642,101.278 	"/>
	<polygon fill="#C41230" points="232.486,57.972 232.486,48.838 194.851,48.838 194.851,57.972 208.551,57.972 208.551,101.278 
		218.788,101.278 218.788,57.972 	"/>
	<polygon points="75.227,145.612 75.227,144.011 69.492,144.011 69.492,140.477 74.382,140.477 74.382,138.89 69.492,138.89 
		69.492,135.456 75.227,135.456 75.227,133.853 67.708,133.853 67.708,145.612 	"/>
	<path d="M85.546,142.261c0-1.009-0.313-1.85-0.96-2.41c-0.493-0.446-1.105-0.712-2.196-0.876l-1.338-0.199
		c-0.544-0.082-1.024-0.281-1.321-0.544c-0.315-0.283-0.448-0.662-0.448-1.091c0-1.041,0.76-1.833,2.148-1.833
		c0.993,0,1.835,0.214,2.562,0.908l1.138-1.124c-1.005-0.941-2.097-1.339-3.648-1.339c-2.444,0-3.931,1.404-3.931,3.452
		c0,0.959,0.279,1.702,0.855,2.247c0.515,0.481,1.275,0.81,2.232,0.942l1.387,0.196c0.696,0.1,0.991,0.218,1.29,0.496
		c0.313,0.282,0.461,0.712,0.461,1.225c0,1.139-0.891,1.8-2.427,1.8c-1.205,0-2.147-0.265-3.006-1.123l-1.19,1.171
		c1.123,1.14,2.397,1.553,4.163,1.553C83.777,145.712,85.546,144.424,85.546,142.261"/>
	<path fill-rule="evenodd" clip-rule="evenodd" d="M94.908,137.421c0,1.239-0.84,1.949-2.08,1.949h-2.576v-3.914h2.576
		C94.068,135.456,94.908,136.182,94.908,137.421 M96.694,137.421c0-2.048-1.473-3.568-3.768-3.568h-4.459v11.761h1.785v-4.624h2.674
		C95.221,140.989,96.694,139.469,96.694,137.421"/>
	<path fill-rule="evenodd" clip-rule="evenodd" d="M104.837,141.732h-3.617l1.835-5.22L104.837,141.732z M108.041,145.612
		l-4.312-11.76h-1.434l-4.312,11.76h1.899l0.807-2.361h4.644l0.809,2.361H108.041z"/>
	<path fill-rule="evenodd" clip-rule="evenodd" d="M119.095,145.613v-11.761h-1.785v8.26l-5.437-8.26h-1.635v11.761h1.786v-8.274
		l5.434,8.274H119.095 M117.458,131.591l-0.793-0.777c-0.444,0.446-0.709,0.513-0.975,0.513c-0.329,0-0.577-0.116-0.907-0.315
		c-0.447-0.264-0.761-0.396-1.24-0.396c-0.529,0-0.975,0.165-1.717,0.911l0.792,0.774c0.464-0.462,0.678-0.496,0.959-0.496
		c0.329,0,0.611,0.134,0.923,0.314c0.43,0.248,0.763,0.381,1.24,0.381C116.251,132.499,116.714,132.332,117.458,131.591"/>
	<path fill-rule="evenodd" clip-rule="evenodd" d="M128.92,139.733c0,2.361-0.112,3.021-0.692,3.651
		c-0.412,0.444-1.059,0.727-1.751,0.727c-0.695,0-1.338-0.282-1.75-0.727c-0.579-0.63-0.696-1.29-0.696-3.651
		c0-2.36,0.117-3.024,0.696-3.651c0.412-0.446,1.055-0.726,1.75-0.726c0.692,0,1.339,0.279,1.751,0.726
		C128.808,136.709,128.92,137.373,128.92,139.733 M130.704,139.733c0-2.264,0.034-3.568-1.122-4.725
		c-0.811-0.81-1.852-1.256-3.105-1.256c-1.256,0-2.279,0.446-3.089,1.256c-1.155,1.156-1.141,2.461-1.141,4.725
		c0,2.262-0.015,3.568,1.141,4.724c0.81,0.811,1.833,1.255,3.089,1.255c1.254,0,2.295-0.444,3.105-1.255
		C130.738,143.302,130.704,141.995,130.704,139.733"/>
	<polygon points="141.326,145.612 141.326,144.011 135.661,144.011 135.661,133.853 133.88,133.853 133.88,145.612 	"/>
	<path fill-rule="evenodd" clip-rule="evenodd" d="M149.338,141.732h-3.616l1.834-5.22L149.338,141.732z M152.542,145.612
		l-4.312-11.76h-1.435l-4.312,11.76h1.899l0.809-2.361h4.644l0.81,2.361H152.542z"/>
	<path fill-rule="evenodd" clip-rule="evenodd" d="M165.643,139.65c0,1.618-0.015,2.893-0.626,3.566
		c-0.498,0.547-1.158,0.794-2.002,0.794h-2.161v-8.555h2.161c0.844,0,1.504,0.248,2.002,0.792
		C165.628,136.925,165.643,138.032,165.643,139.65 M167.429,139.65c0-1.702,0.082-3.418-1.192-4.691
		c-0.742-0.742-1.816-1.106-3.036-1.106h-4.132v11.761h4.132c1.22,0,2.294-0.362,3.036-1.105
		C167.511,143.235,167.429,141.351,167.429,139.65"/>
	<polygon points="178.11,145.612 178.11,144.011 172.379,144.011 172.379,140.477 177.267,140.477 177.267,138.89 172.379,138.89 
		172.379,135.456 178.11,135.456 178.11,133.853 170.594,133.853 170.594,145.612 	"/>
	<polygon points="191.799,135.456 191.799,133.853 183.539,133.853 183.539,135.456 186.778,135.456 186.778,145.612 
		188.562,145.612 188.562,135.456 	"/>
	<polygon points="201.871,145.612 201.871,144.011 196.143,144.011 196.143,140.477 201.029,140.477 201.029,138.89 196.143,138.89 
		196.143,135.456 201.871,135.456 201.871,133.853 194.354,133.853 194.354,145.612 	"/>
	<polygon points="213.695,145.612 213.695,133.853 211.91,133.853 211.91,142.112 206.478,133.853 204.842,133.853 204.842,145.612 
		206.626,145.612 206.626,137.339 212.06,145.612 	"/>
	<rect x="217.296" y="133.852" width="1.783" height="11.761"/>
	<path d="M230.029,142.261c0-1.009-0.312-1.85-0.955-2.41c-0.5-0.446-1.108-0.712-2.198-0.876l-1.339-0.199
		c-0.544-0.082-1.022-0.281-1.319-0.544c-0.315-0.283-0.448-0.662-0.448-1.091c0-1.041,0.762-1.833,2.146-1.833
		c0.992,0,1.834,0.214,2.561,0.908l1.142-1.124c-1.008-0.941-2.1-1.339-3.651-1.339c-2.444,0-3.932,1.404-3.932,3.452
		c0,0.959,0.278,1.702,0.858,2.247c0.512,0.481,1.271,0.81,2.229,0.942l1.389,0.196c0.693,0.1,0.993,0.218,1.288,0.496
		c0.315,0.282,0.461,0.712,0.461,1.225c0,1.139-0.89,1.8-2.426,1.8c-1.207,0-2.147-0.265-3.008-1.123l-1.188,1.171
		c1.123,1.14,2.395,1.553,4.161,1.553C228.261,145.712,230.029,144.424,230.029,142.261"/>
	<path fill-rule="evenodd" clip-rule="evenodd" d="M74.135,119.433c0,1.157-0.809,1.834-2,1.834h-2.644v-3.683h2.644
		C73.326,117.584,74.135,118.278,74.135,119.433 M76.281,127.742l-2.707-5.204c1.32-0.363,2.346-1.437,2.346-3.121
		c0-2-1.421-3.437-3.652-3.437h-4.559v11.762h1.782v-4.955h2.233l2.477,4.955H76.281z"/>
	<polygon points="86.745,127.742 86.745,126.138 81.013,126.138 81.013,122.604 85.902,122.604 85.902,121.02 81.013,121.02 
		81.013,117.584 86.745,117.584 86.745,115.98 79.227,115.98 79.227,127.742 	"/>
	<path fill-rule="evenodd" clip-rule="evenodd" d="M95.339,123.861h-3.617l1.832-5.221L95.339,123.861z M98.542,127.742
		L94.23,115.98h-1.436l-4.312,11.762h1.902l0.808-2.363h4.641l0.812,2.363H98.542z"/>
	<polygon points="108.365,127.742 108.365,126.138 102.699,126.138 102.699,115.98 100.913,115.98 100.913,127.742 	"/>
	<polygon points="123.113,117.584 123.113,115.979 115.596,115.979 115.596,127.742 117.383,127.742 117.383,122.77 122.27,122.77 
		122.27,121.167 117.383,121.167 117.383,117.584 	"/>
	<polygon points="133.479,127.742 133.479,126.138 127.747,126.138 127.747,122.604 132.636,122.604 132.636,121.02 127.747,121.02 
		127.747,117.584 133.479,117.584 133.479,115.98 125.965,115.98 125.965,127.742 	"/>
	<path fill-rule="evenodd" clip-rule="evenodd" d="M143.197,121.778c0,1.62-0.016,2.892-0.628,3.569
		c-0.497,0.544-1.155,0.791-1.999,0.791h-2.163v-8.555h2.163c0.844,0,1.502,0.247,1.999,0.794
		C143.182,119.053,143.197,120.161,143.197,121.778 M144.98,121.778c0-1.701,0.083-3.419-1.189-4.69
		c-0.742-0.744-1.816-1.107-3.04-1.107h-4.128v11.762h4.128c1.224,0,2.298-0.363,3.04-1.107
		C145.063,125.364,144.98,123.479,144.98,121.778"/>
	<polygon points="155.837,127.742 155.837,126.138 150.105,126.138 150.105,122.604 154.996,122.604 154.996,121.02 150.105,121.02 
		150.105,117.584 155.837,117.584 155.837,115.98 148.32,115.98 148.32,127.742 	"/>
	<path fill-rule="evenodd" clip-rule="evenodd" d="M165.405,119.433c0,1.157-0.811,1.834-2,1.834h-2.642v-3.683h2.642
		C164.595,117.584,165.405,118.278,165.405,119.433 M167.552,127.742l-2.706-5.204c1.318-0.363,2.346-1.437,2.346-3.121
		c0-2-1.422-3.437-3.651-3.437h-4.56v11.762h1.783v-4.955h2.229l2.479,4.955H167.552z"/>
	<path fill-rule="evenodd" clip-rule="evenodd" d="M175.95,123.861h-3.619l1.836-5.221L175.95,123.861z M179.157,127.742
		l-4.314-11.762h-1.437l-4.311,11.762h1.898l0.811-2.363h4.643l0.809,2.363H179.157z"/>
	<path d="M189.521,124.223h-1.801c-0.279,1.19-1.09,2.016-2.396,2.016c-0.692,0-1.318-0.265-1.734-0.711
		c-0.576-0.627-0.709-1.305-0.709-3.667s0.133-3.039,0.709-3.668c0.416-0.443,1.042-0.709,1.734-0.709
		c1.307,0,2.097,0.826,2.38,2.015h1.817c-0.413-2.345-2.03-3.617-4.197-3.617c-1.22,0-2.278,0.446-3.088,1.258
		c-1.157,1.154-1.141,2.459-1.141,4.722c0,2.266-0.017,3.569,1.141,4.726c0.81,0.808,1.868,1.256,3.088,1.256
		C187.457,127.842,189.125,126.568,189.521,124.223"/>
	<rect x="192.603" y="115.98" width="1.783" height="11.762"/>
	<path fill-rule="evenodd" clip-rule="evenodd" d="M204.402,121.861c0,2.361-0.113,3.023-0.69,3.65
		c-0.414,0.445-1.058,0.728-1.752,0.728c-0.693,0-1.34-0.282-1.751-0.728c-0.58-0.627-0.693-1.289-0.693-3.65
		c0-2.363,0.113-3.022,0.693-3.648c0.411-0.448,1.058-0.729,1.751-0.729c0.694,0,1.338,0.28,1.752,0.729
		C204.289,118.839,204.402,119.498,204.402,121.861 M206.188,121.861c0-2.265,0.034-3.569-1.122-4.724
		c-0.812-0.811-1.852-1.257-3.106-1.257c-1.256,0-2.279,0.446-3.087,1.257c-1.158,1.154-1.142,2.459-1.142,4.724
		c0,2.264-0.017,3.568,1.142,4.725c0.808,0.809,1.831,1.256,3.087,1.256c1.255,0,2.295-0.447,3.106-1.256
		C206.223,125.43,206.188,124.125,206.188,121.861 M204.206,112.164h-1.866l-1.24,2.677h1.271L204.206,112.164z"/>
	<polygon points="218.404,127.742 218.404,115.98 216.623,115.98 216.623,124.24 211.186,115.98 209.551,115.98 209.551,127.742 
		211.336,127.742 211.336,119.466 216.771,127.742 	"/>
	<path fill-rule="evenodd" clip-rule="evenodd" fill="#FFC425" d="M47.703,32.431c14.692-5.321,33.489-17.605,55.759-10.765
		c4.89,1.504-1.32,0.179-4.486-0.102c-18.597-1.634-31.978,7.509-50.261,13.817c-23.887,8.242-35.415,6.226-29.342-4.295
		c1.001-1.37-1.55,2.445-1.55,2.445c-22.218,32.662-12.077,70.056,5.816,89.244c3.292,3.531,6.842,6.688,10.646,9.361
		c4.112,2.89,13.631,8.011,18.343,9.383c2.76,0.803,1.521,1.067-4.804-0.62c-2.664-0.71-9.566-3.027-15.477-6.85
		c-5.097-3.295-9.582-6.769-13.909-11.409c-21.011-22.529-29.651-69.901,7.248-103.481C53.03-5.73,98.212-7.213,125.876,22.456
		c2.011,2.155,6.282,8.198,1.757,3.346c-26.78-28.718-73.867-29.44-99.489-4.444C23.631,25.759,11.91,45.397,47.703,32.431"/>
	<path fill="none" stroke="#FFC425" stroke-width="0.685" stroke-miterlimit="3.864" d="M47.703,32.431
		c14.692-5.321,33.489-17.605,55.759-10.765c4.89,1.504-1.32,0.179-4.486-0.102c-18.597-1.634-31.978,7.509-50.261,13.817
		c-23.887,8.242-35.415,6.226-29.342-4.295c1.001-1.37-1.55,2.445-1.55,2.445c-22.218,32.662-12.077,70.056,5.816,89.244
		c3.292,3.531,6.842,6.688,10.646,9.361c4.112,2.89,13.631,8.011,18.343,9.383c2.76,0.803,1.521,1.067-4.804-0.62
		c-2.664-0.71-9.566-3.027-15.477-6.85c-5.097-3.295-9.582-6.769-13.909-11.409c-21.011-22.529-29.651-69.901,7.248-103.481
		C53.03-5.73,98.212-7.213,125.876,22.456c2.011,2.155,6.282,8.198,1.757,3.346c-26.78-28.718-73.867-29.44-99.489-4.444
		C23.631,25.759,11.91,45.397,47.703,32.431z"/>
</g>
</svg>
